{"title":"Man Of Tai Chi (2013)720p BDRip DD5.1-DGrea8","uid":9231053,"size":1163728501,"categoryP":"video","categoryS":"hd___movies","magnet":"?xt=urn:btih:3beb2f233167a98bb2f9ccd66c6d59f5092cb198&amp;dn=Man+Of+Tai+Chi+%282013%29720p+BDRip+DD5.1-DGrea8&amp;tr=udp%3A%2F%2Ftracker.openbittorrent.com%3A80&amp;tr=udp%3A%2F%2Fopen.demonii.com%3A1337&amp;tr=udp%3A%2F%2Ftracker.coppersurfer.tk%3A6969&amp;tr=udp%3A%2F%2Fexodus.desync.com%3A6969","seeders":1,"leechers":0,"uploader":"DGrea8","files":-1,"time":1385069784,"description":"                Man Of Tai Chi (2013)720p BDRip DD5.1-DGrea8\n\n\nStoryline:-\n\nTiger Chen is a Tai Chi student who is rather rebellious and uses Tai Chi to fight despite his master's concerns. When the temple where he studies get threatened from modern redevelopment, he fights in an underground fight club to get money the temple needs. However he soon realizes that his employer has other negative motives.\n\n\nCast Info:. \n\nKeanu Reeves\t ...\tDonaka Mark\nIko Uwais\t ...\tGilang Sanjaya(Special Appearance Pencak Silat Fighter)\nTiger Hu Chen\t ...\tChen Lin-Hu - Man of Tai Chi\nKaren Mok\t ...\tSun Jingshi(Captain of Hongkong Police Officer)\nSimon Yam\t ...\tWong - Superintendent of Hongkong Police Officer\nSilvio Simac\t ...\tUri Romanov\nJeremy Marinas\t ...\tMMA Fighter\nQing Ye\t ...\tQingsha\nHelene Leclerc\t ...\tFemale Announcer\nSung-jun Yoo\t ...\tChi-Tak\nSteven Dasz\t ...\tVip audience\nBrahim Achabbakhe\t ...\tTaekwondo Fighter\nYu Hai\t ...\tYang - Tai Chi Master\nMichael Chan\t ...\tPolice Officer #1 (voice)\nSam Lee\t ...\tTak Ming\n\n\nGeneral Info:. \n\nDirector:Keanu Reeves\nWriters: Michael G. Cooney\nStars:Keanu Reeves, Iko Uwais, Tiger Hu Chen\nRelease Date:5 July 2013 (China)\nGenres:Action\n\n\nVideo Info:. \n\nVideo\nID                                       : 1\nFormat                                   : AVC\nFormat/Info                              : Advanced Video Codec\nDuration                                 : 1h 45mn\nWidth                                    : 1 280 pixels\nHeight                                   : 528 pixels\nFrame rate                               : 25.000 fps\nColor space                              : YUV\nChroma subsampling                       : 4:2:0\nBit depth                                : 8 bits\nStream size                              : 738 MiB (67%)\n\n\nAudio Info:.\n \nAudio\nID                                       : 2\nFormat                                   : AC-3\nFormat/Info                              : Audio Coding 3\nMode extension                           : CM (complete main)\nFormat settings, Endianness              : Big\nMuxing mode                              : Header stripping\nCodec ID                                 : A_AC3\nDuration                                 : 1h 45mn\nBit rate mode                            : Constant\nBit rate                                 : 448 Kbps\nChannel(s)                               : 6 channels\nChannel positions                        : Front: L C R, Side: L R, LFE\nSampling rate                            : 48.0 KHz\nBit depth                                : 16 bits\nCompression mode                         : Lossy\nDelay relative to video                  : -23ms\nStream size                              : 337 MiB (31%)\nLanguage                                 : English\n\nSubtitle : English\n\n\n\nScreen Shoots:-\n     &lt;a href=&quot;\nhttp://img824.imageshack.us/img824/6775/glou.jpg&quot; rel=&quot;nofollow&quot; target=&quot;_NEW&quot;&gt;\nhttp://img824.imageshack.us/img824/6775/glou.jpg&lt;/a&gt;\n &lt;a href=&quot;\nhttp://img594.imageshack.us/img594/9710/evlc.jpg&quot; rel=&quot;nofollow&quot; target=&quot;_NEW&quot;&gt;\nhttp://img594.imageshack.us/img594/9710/evlc.jpg&lt;/a&gt;\n &lt;a href=&quot;\nhttp://img28.imageshack.us/img28/5518/qc20.jpg&quot; rel=&quot;nofollow&quot; target=&quot;_NEW&quot;&gt;\nhttp://img28.imageshack.us/img28/5518/qc20.jpg&lt;/a&gt;\n &lt;a href=&quot;\nhttp://img203.imageshack.us/img203/6315/7juj.jpg&quot; rel=&quot;nofollow&quot; target=&quot;_NEW&quot;&gt;\nhttp://img203.imageshack.us/img203/6315/7juj.jpg&lt;/a&gt;\n &lt;a href=&quot;\nhttp://img842.imageshack.us/img842/7982/79fg.jpg&quot; rel=&quot;nofollow&quot; target=&quot;_NEW&quot;&gt;\nhttp://img842.imageshack.us/img842/7982/79fg.jpg&lt;/a&gt;\n\n\n\nNote:-- Check The Torrent\n\n\nCheck The Sample Video In This Torrent\t","torrent":{"xt":"urn:btih:3beb2f233167a98bb2f9ccd66c6d59f5092cb198","amp;dn":"Man+Of+Tai+Chi+%282013%29720p+BDRip+DD5.1-DGrea8","amp;tr":["udp%3A%2F%2Ftracker.openbittorrent.com%3A80","udp%3A%2F%2Fopen.demonii.com%3A1337","udp%3A%2F%2Ftracker.coppersurfer.tk%3A6969","udp%3A%2F%2Fexodus.desync.com%3A6969"],"infoHash":"3beb2f233167a98bb2f9ccd66c6d59f5092cb198","infoHashBuffer":{"type":"Buffer","data":[59,235,47,35,49,103,169,139,178,249,204,214,108,109,89,245,9,44,177,152]},"announce":[],"urlList":[]}}